<svg xmlns="http://www.w3.org/2000/svg" viewBox="0 0 20 20" width="20" height="20">
	<defs>
		<clipPath clipPathUnits="userSpaceOnUse" id="cp1">
			<path d="M-335 -41L40 -41L40 626L-335 626Z" />
		</clipPath>
	</defs>
	<style>
		tspan { white-space:pre }
		.shp0 { fill: #3d3d3d } 
	</style>
	<g id="Contacts" clip-path="url(#cp1)">
		<g id="Top Bar">
			<g id="New Chat">
				<path id="Rectangle 12" class="shp0" d="M10 0L10 0C10.55 0 11 0.45 11 1L11 19C11 19.55 10.55 20 10 20L10 20C9.45 20 9 19.55 9 19L9 1C9 0.45 9.45 0 10 0Z" />
				<path id="Rectangle 12 Copy" class="shp0" d="M20 10L20 10C20 10.55 19.55 11 19 11L1 11C0.45 11 0 10.55 0 10L0 10C0 9.45 0.45 9 1 9L19 9C19.55 9 20 9.45 20 10Z" />
			</g>
		</g>
	</g>
</svg>