<svg xmlns="http://www.w3.org/2000/svg" viewBox="0 0 22 5" width="22" height="5">
	<defs>
		<clipPath clipPathUnits="userSpaceOnUse" id="cp1">
			<path d="M-338 -46L37 -46L37 621L-338 621Z" />
		</clipPath>
	</defs>
	<style>
		tspan { white-space:pre }
		.shp0 { fill: #3d3d3d } 
	</style>
	<g id="Chat Screen" clip-path="url(#cp1)">
		<g id="Options Icon">
			<path id="Oval 2" class="shp0" d="M3.5 5C4.88 5 6 3.88 6 2.5C6 1.12 4.88 0 3.5 0C2.12 0 1 1.12 1 2.5C1 3.88 2.12 5 3.5 5Z" />
			<path id="Oval 2 Copy" class="shp0" d="M11.5 5C12.88 5 14 3.88 14 2.5C14 1.12 12.88 0 11.5 0C10.12 0 9 1.12 9 2.5C9 3.88 10.12 5 11.5 5Z" />
			<path id="Oval 2 Copy 2" class="shp0" d="M19.5 5C20.88 5 22 3.88 22 2.5C22 1.12 20.88 0 19.5 0C18.12 0 17 1.12 17 2.5C17 3.88 18.12 5 19.5 5Z" />
		</g>
	</g>
</svg>