<svg xmlns="http://www.w3.org/2000/svg" viewBox="0 0 20 21" width="20" height="21">
	<defs>
		<clipPath clipPathUnits="userSpaceOnUse" id="cp1">
			<path d="M-335 -98L40 -98L40 569L-335 569Z" />
		</clipPath>
	</defs>
	<style>
		tspan { white-space:pre }
		.shp0 { fill: none;stroke: #3d3d3d;stroke-width: 2 } 
	</style>
	<g id="Contacts" clip-path="url(#cp1)">
		<g id="Group">
			<g id="Search Icon" style="opacity: 0.2">
				<path id="Oval 2" class="shp0" d="M9 15C12.87 15 16 11.87 16 8C16 4.13 12.87 1 9 1C5.13 1 2 4.13 2 8C2 11.87 5.13 15 9 15Z" />
				<path id="Rectangle 2" class="shp0" d="M12.81 12.59L12.81 12.59C12.36 12.91 12.26 13.54 12.59 13.98L17.29 20.46C17.61 20.9 18.24 21 18.69 20.68L18.69 20.68C19.13 20.35 19.23 19.73 18.91 19.28L14.21 12.81C13.88 12.36 13.26 12.26 12.81 12.59Z" />
			</g>
		</g>
	</g>
</svg>